<?xml version="1.0" encoding="utf-8"?>
<!DOCTYPE svg PUBLIC "-//W3C//DTD SVG 1.1//EN" "http://www.w3.org/Graphics/SVG/1.1/DTD/svg11.dtd">
<svg version="1.1" baseProfile="full" width="132" height="132" viewBox="0 0 132 132" xmlns="http://www.w3.org/2000/svg" xmlns:xlink="http://www.w3.org/1999/xlink" xmlns:ev="http://www.w3.org/2001/xml-events">
<rect x="0" y="0" width="132" height="132" fill="rgb(255,255,255)" fill-opacity="1.00" />
<defs><rect id="p" width="4" height="4" /></defs>
<g fill="rgb(0,0,0)" fill-opacity="1.00">
<use x="16" y="16" xlink:href="#p" />
<use x="20" y="16" xlink:href="#p" />
<use x="24" y="16" xlink:href="#p" />
<use x="28" y="16" xlink:href="#p" />
<use x="32" y="16" xlink:href="#p" />
<use x="36" y="16" xlink:href="#p" />
<use x="40" y="16" xlink:href="#p" />
<use x="56" y="16" xlink:href="#p" />
<use x="68" y="16" xlink:href="#p" />
<use x="80" y="16" xlink:href="#p" />
<use x="88" y="16" xlink:href="#p" />
<use x="92" y="16" xlink:href="#p" />
<use x="96" y="16" xlink:href="#p" />
<use x="100" y="16" xlink:href="#p" />
<use x="104" y="16" xlink:href="#p" />
<use x="108" y="16" xlink:href="#p" />
<use x="112" y="16" xlink:href="#p" />
<use x="16" y="20" xlink:href="#p" />
<use x="40" y="20" xlink:href="#p" />
<use x="56" y="20" xlink:href="#p" />
<use x="64" y="20" xlink:href="#p" />
<use x="68" y="20" xlink:href="#p" />
<use x="72" y="20" xlink:href="#p" />
<use x="76" y="20" xlink:href="#p" />
<use x="88" y="20" xlink:href="#p" />
<use x="112" y="20" xlink:href="#p" />
<use x="16" y="24" xlink:href="#p" />
<use x="24" y="24" xlink:href="#p" />
<use x="28" y="24" xlink:href="#p" />
<use x="32" y="24" xlink:href="#p" />
<use x="40" y="24" xlink:href="#p" />
<use x="48" y="24" xlink:href="#p" />
<use x="60" y="24" xlink:href="#p" />
<use x="64" y="24" xlink:href="#p" />
<use x="72" y="24" xlink:href="#p" />
<use x="76" y="24" xlink:href="#p" />
<use x="80" y="24" xlink:href="#p" />
<use x="88" y="24" xlink:href="#p" />
<use x="96" y="24" xlink:href="#p" />
<use x="100" y="24" xlink:href="#p" />
<use x="104" y="24" xlink:href="#p" />
<use x="112" y="24" xlink:href="#p" />
<use x="16" y="28" xlink:href="#p" />
<use x="24" y="28" xlink:href="#p" />
<use x="28" y="28" xlink:href="#p" />
<use x="32" y="28" xlink:href="#p" />
<use x="40" y="28" xlink:href="#p" />
<use x="48" y="28" xlink:href="#p" />
<use x="52" y="28" xlink:href="#p" />
<use x="60" y="28" xlink:href="#p" />
<use x="68" y="28" xlink:href="#p" />
<use x="72" y="28" xlink:href="#p" />
<use x="88" y="28" xlink:href="#p" />
<use x="96" y="28" xlink:href="#p" />
<use x="100" y="28" xlink:href="#p" />
<use x="104" y="28" xlink:href="#p" />
<use x="112" y="28" xlink:href="#p" />
<use x="16" y="32" xlink:href="#p" />
<use x="24" y="32" xlink:href="#p" />
<use x="28" y="32" xlink:href="#p" />
<use x="32" y="32" xlink:href="#p" />
<use x="40" y="32" xlink:href="#p" />
<use x="48" y="32" xlink:href="#p" />
<use x="56" y="32" xlink:href="#p" />
<use x="80" y="32" xlink:href="#p" />
<use x="88" y="32" xlink:href="#p" />
<use x="96" y="32" xlink:href="#p" />
<use x="100" y="32" xlink:href="#p" />
<use x="104" y="32" xlink:href="#p" />
<use x="112" y="32" xlink:href="#p" />
<use x="16" y="36" xlink:href="#p" />
<use x="40" y="36" xlink:href="#p" />
<use x="48" y="36" xlink:href="#p" />
<use x="56" y="36" xlink:href="#p" />
<use x="60" y="36" xlink:href="#p" />
<use x="68" y="36" xlink:href="#p" />
<use x="76" y="36" xlink:href="#p" />
<use x="88" y="36" xlink:href="#p" />
<use x="112" y="36" xlink:href="#p" />
<use x="16" y="40" xlink:href="#p" />
<use x="20" y="40" xlink:href="#p" />
<use x="24" y="40" xlink:href="#p" />
<use x="28" y="40" xlink:href="#p" />
<use x="32" y="40" xlink:href="#p" />
<use x="36" y="40" xlink:href="#p" />
<use x="40" y="40" xlink:href="#p" />
<use x="48" y="40" xlink:href="#p" />
<use x="56" y="40" xlink:href="#p" />
<use x="64" y="40" xlink:href="#p" />
<use x="72" y="40" xlink:href="#p" />
<use x="80" y="40" xlink:href="#p" />
<use x="88" y="40" xlink:href="#p" />
<use x="92" y="40" xlink:href="#p" />
<use x="96" y="40" xlink:href="#p" />
<use x="100" y="40" xlink:href="#p" />
<use x="104" y="40" xlink:href="#p" />
<use x="108" y="40" xlink:href="#p" />
<use x="112" y="40" xlink:href="#p" />
<use x="48" y="44" xlink:href="#p" />
<use x="52" y="44" xlink:href="#p" />
<use x="60" y="44" xlink:href="#p" />
<use x="64" y="44" xlink:href="#p" />
<use x="72" y="44" xlink:href="#p" />
<use x="80" y="44" xlink:href="#p" />
<use x="16" y="48" xlink:href="#p" />
<use x="24" y="48" xlink:href="#p" />
<use x="28" y="48" xlink:href="#p" />
<use x="32" y="48" xlink:href="#p" />
<use x="36" y="48" xlink:href="#p" />
<use x="40" y="48" xlink:href="#p" />
<use x="52" y="48" xlink:href="#p" />
<use x="60" y="48" xlink:href="#p" />
<use x="68" y="48" xlink:href="#p" />
<use x="72" y="48" xlink:href="#p" />
<use x="88" y="48" xlink:href="#p" />
<use x="92" y="48" xlink:href="#p" />
<use x="96" y="48" xlink:href="#p" />
<use x="100" y="48" xlink:href="#p" />
<use x="104" y="48" xlink:href="#p" />
<use x="20" y="52" xlink:href="#p" />
<use x="24" y="52" xlink:href="#p" />
<use x="32" y="52" xlink:href="#p" />
<use x="36" y="52" xlink:href="#p" />
<use x="56" y="52" xlink:href="#p" />
<use x="60" y="52" xlink:href="#p" />
<use x="84" y="52" xlink:href="#p" />
<use x="92" y="52" xlink:href="#p" />
<use x="108" y="52" xlink:href="#p" />
<use x="16" y="56" xlink:href="#p" />
<use x="32" y="56" xlink:href="#p" />
<use x="40" y="56" xlink:href="#p" />
<use x="56" y="56" xlink:href="#p" />
<use x="76" y="56" xlink:href="#p" />
<use x="80" y="56" xlink:href="#p" />
<use x="84" y="56" xlink:href="#p" />
<use x="88" y="56" xlink:href="#p" />
<use x="92" y="56" xlink:href="#p" />
<use x="100" y="56" xlink:href="#p" />
<use x="108" y="56" xlink:href="#p" />
<use x="112" y="56" xlink:href="#p" />
<use x="28" y="60" xlink:href="#p" />
<use x="32" y="60" xlink:href="#p" />
<use x="44" y="60" xlink:href="#p" />
<use x="52" y="60" xlink:href="#p" />
<use x="60" y="60" xlink:href="#p" />
<use x="64" y="60" xlink:href="#p" />
<use x="72" y="60" xlink:href="#p" />
<use x="76" y="60" xlink:href="#p" />
<use x="84" y="60" xlink:href="#p" />
<use x="112" y="60" xlink:href="#p" />
<use x="16" y="64" xlink:href="#p" />
<use x="20" y="64" xlink:href="#p" />
<use x="24" y="64" xlink:href="#p" />
<use x="32" y="64" xlink:href="#p" />
<use x="40" y="64" xlink:href="#p" />
<use x="44" y="64" xlink:href="#p" />
<use x="48" y="64" xlink:href="#p" />
<use x="56" y="64" xlink:href="#p" />
<use x="64" y="64" xlink:href="#p" />
<use x="68" y="64" xlink:href="#p" />
<use x="72" y="64" xlink:href="#p" />
<use x="76" y="64" xlink:href="#p" />
<use x="80" y="64" xlink:href="#p" />
<use x="84" y="64" xlink:href="#p" />
<use x="88" y="64" xlink:href="#p" />
<use x="96" y="64" xlink:href="#p" />
<use x="104" y="64" xlink:href="#p" />
<use x="108" y="64" xlink:href="#p" />
<use x="112" y="64" xlink:href="#p" />
<use x="16" y="68" xlink:href="#p" />
<use x="20" y="68" xlink:href="#p" />
<use x="24" y="68" xlink:href="#p" />
<use x="28" y="68" xlink:href="#p" />
<use x="36" y="68" xlink:href="#p" />
<use x="44" y="68" xlink:href="#p" />
<use x="56" y="68" xlink:href="#p" />
<use x="68" y="68" xlink:href="#p" />
<use x="84" y="68" xlink:href="#p" />
<use x="92" y="68" xlink:href="#p" />
<use x="100" y="68" xlink:href="#p" />
<use x="108" y="68" xlink:href="#p" />
<use x="16" y="72" xlink:href="#p" />
<use x="28" y="72" xlink:href="#p" />
<use x="32" y="72" xlink:href="#p" />
<use x="40" y="72" xlink:href="#p" />
<use x="44" y="72" xlink:href="#p" />
<use x="60" y="72" xlink:href="#p" />
<use x="64" y="72" xlink:href="#p" />
<use x="72" y="72" xlink:href="#p" />
<use x="76" y="72" xlink:href="#p" />
<use x="80" y="72" xlink:href="#p" />
<use x="92" y="72" xlink:href="#p" />
<use x="96" y="72" xlink:href="#p" />
<use x="100" y="72" xlink:href="#p" />
<use x="108" y="72" xlink:href="#p" />
<use x="112" y="72" xlink:href="#p" />
<use x="16" y="76" xlink:href="#p" />
<use x="24" y="76" xlink:href="#p" />
<use x="28" y="76" xlink:href="#p" />
<use x="36" y="76" xlink:href="#p" />
<use x="44" y="76" xlink:href="#p" />
<use x="52" y="76" xlink:href="#p" />
<use x="56" y="76" xlink:href="#p" />
<use x="60" y="76" xlink:href="#p" />
<use x="76" y="76" xlink:href="#p" />
<use x="80" y="76" xlink:href="#p" />
<use x="84" y="76" xlink:href="#p" />
<use x="88" y="76" xlink:href="#p" />
<use x="92" y="76" xlink:href="#p" />
<use x="100" y="76" xlink:href="#p" />
<use x="112" y="76" xlink:href="#p" />
<use x="16" y="80" xlink:href="#p" />
<use x="24" y="80" xlink:href="#p" />
<use x="40" y="80" xlink:href="#p" />
<use x="48" y="80" xlink:href="#p" />
<use x="52" y="80" xlink:href="#p" />
<use x="60" y="80" xlink:href="#p" />
<use x="80" y="80" xlink:href="#p" />
<use x="84" y="80" xlink:href="#p" />
<use x="88" y="80" xlink:href="#p" />
<use x="92" y="80" xlink:href="#p" />
<use x="96" y="80" xlink:href="#p" />
<use x="104" y="80" xlink:href="#p" />
<use x="48" y="84" xlink:href="#p" />
<use x="56" y="84" xlink:href="#p" />
<use x="64" y="84" xlink:href="#p" />
<use x="68" y="84" xlink:href="#p" />
<use x="76" y="84" xlink:href="#p" />
<use x="80" y="84" xlink:href="#p" />
<use x="96" y="84" xlink:href="#p" />
<use x="100" y="84" xlink:href="#p" />
<use x="104" y="84" xlink:href="#p" />
<use x="16" y="88" xlink:href="#p" />
<use x="20" y="88" xlink:href="#p" />
<use x="24" y="88" xlink:href="#p" />
<use x="28" y="88" xlink:href="#p" />
<use x="32" y="88" xlink:href="#p" />
<use x="36" y="88" xlink:href="#p" />
<use x="40" y="88" xlink:href="#p" />
<use x="52" y="88" xlink:href="#p" />
<use x="68" y="88" xlink:href="#p" />
<use x="72" y="88" xlink:href="#p" />
<use x="80" y="88" xlink:href="#p" />
<use x="88" y="88" xlink:href="#p" />
<use x="96" y="88" xlink:href="#p" />
<use x="100" y="88" xlink:href="#p" />
<use x="104" y="88" xlink:href="#p" />
<use x="108" y="88" xlink:href="#p" />
<use x="112" y="88" xlink:href="#p" />
<use x="16" y="92" xlink:href="#p" />
<use x="40" y="92" xlink:href="#p" />
<use x="48" y="92" xlink:href="#p" />
<use x="64" y="92" xlink:href="#p" />
<use x="68" y="92" xlink:href="#p" />
<use x="80" y="92" xlink:href="#p" />
<use x="96" y="92" xlink:href="#p" />
<use x="100" y="92" xlink:href="#p" />
<use x="108" y="92" xlink:href="#p" />
<use x="112" y="92" xlink:href="#p" />
<use x="16" y="96" xlink:href="#p" />
<use x="24" y="96" xlink:href="#p" />
<use x="28" y="96" xlink:href="#p" />
<use x="32" y="96" xlink:href="#p" />
<use x="40" y="96" xlink:href="#p" />
<use x="48" y="96" xlink:href="#p" />
<use x="52" y="96" xlink:href="#p" />
<use x="56" y="96" xlink:href="#p" />
<use x="64" y="96" xlink:href="#p" />
<use x="72" y="96" xlink:href="#p" />
<use x="76" y="96" xlink:href="#p" />
<use x="80" y="96" xlink:href="#p" />
<use x="84" y="96" xlink:href="#p" />
<use x="88" y="96" xlink:href="#p" />
<use x="92" y="96" xlink:href="#p" />
<use x="96" y="96" xlink:href="#p" />
<use x="100" y="96" xlink:href="#p" />
<use x="104" y="96" xlink:href="#p" />
<use x="108" y="96" xlink:href="#p" />
<use x="112" y="96" xlink:href="#p" />
<use x="16" y="100" xlink:href="#p" />
<use x="24" y="100" xlink:href="#p" />
<use x="28" y="100" xlink:href="#p" />
<use x="32" y="100" xlink:href="#p" />
<use x="40" y="100" xlink:href="#p" />
<use x="48" y="100" xlink:href="#p" />
<use x="84" y="100" xlink:href="#p" />
<use x="88" y="100" xlink:href="#p" />
<use x="92" y="100" xlink:href="#p" />
<use x="96" y="100" xlink:href="#p" />
<use x="104" y="100" xlink:href="#p" />
<use x="108" y="100" xlink:href="#p" />
<use x="112" y="100" xlink:href="#p" />
<use x="16" y="104" xlink:href="#p" />
<use x="24" y="104" xlink:href="#p" />
<use x="28" y="104" xlink:href="#p" />
<use x="32" y="104" xlink:href="#p" />
<use x="40" y="104" xlink:href="#p" />
<use x="48" y="104" xlink:href="#p" />
<use x="52" y="104" xlink:href="#p" />
<use x="56" y="104" xlink:href="#p" />
<use x="60" y="104" xlink:href="#p" />
<use x="64" y="104" xlink:href="#p" />
<use x="76" y="104" xlink:href="#p" />
<use x="92" y="104" xlink:href="#p" />
<use x="104" y="104" xlink:href="#p" />
<use x="112" y="104" xlink:href="#p" />
<use x="16" y="108" xlink:href="#p" />
<use x="40" y="108" xlink:href="#p" />
<use x="56" y="108" xlink:href="#p" />
<use x="60" y="108" xlink:href="#p" />
<use x="72" y="108" xlink:href="#p" />
<use x="76" y="108" xlink:href="#p" />
<use x="80" y="108" xlink:href="#p" />
<use x="88" y="108" xlink:href="#p" />
<use x="92" y="108" xlink:href="#p" />
<use x="96" y="108" xlink:href="#p" />
<use x="100" y="108" xlink:href="#p" />
<use x="112" y="108" xlink:href="#p" />
<use x="16" y="112" xlink:href="#p" />
<use x="20" y="112" xlink:href="#p" />
<use x="24" y="112" xlink:href="#p" />
<use x="28" y="112" xlink:href="#p" />
<use x="32" y="112" xlink:href="#p" />
<use x="36" y="112" xlink:href="#p" />
<use x="40" y="112" xlink:href="#p" />
<use x="48" y="112" xlink:href="#p" />
<use x="60" y="112" xlink:href="#p" />
<use x="84" y="112" xlink:href="#p" />
<use x="92" y="112" xlink:href="#p" />
<use x="96" y="112" xlink:href="#p" />
<use x="100" y="112" xlink:href="#p" />
<use x="104" y="112" xlink:href="#p" />
<use x="108" y="112" xlink:href="#p" />
<use x="112" y="112" xlink:href="#p" />
</g>
</svg>